<svg xmlns="http://www.w3.org/2000/svg" width="28" height="28">
   <path
       d="M 25.488102,-1.67644e-7 V 9.5776399 h -9.577641 v -3.192547 h 3.926251 C 16.459402,3.9996889 11.906478,3.8791909 8.367655,6.2437569 4.338676,8.9358349 2.780367,14.07368 4.634704,18.550442 c 1.854335,4.476763 6.589763,7.008261 11.34227,6.062929 4.752505,-0.945333 8.158037,-5.09784 8.158037,-9.943453 h 3.192547 c 0,6.349074 -4.499961,11.835002 -10.72704,13.073645 C 10.373439,28.982206 4.115024,25.638369 1.6853386,19.772589 -0.74434639,13.906809 1.3156476,7.1148149 6.59471,3.5874579 9.234241,1.8237795 12.319162,1.1171474 15.305624,1.4112884 c 2.507325,0.2469499 4.943962,1.2030415 6.989931,2.8308905 V -1.67644e-7 Z"/>
</svg>
